<svg width="516" height="516" viewBox="0 0 516 516" fill="none" xmlns="http://www.w3.org/2000/svg">
<path d="M258 0L288.27 66.8823L337.726 12.6274L345.847 85.5902L409.649 49.2736L394.825 121.175L466.726 106.351L430.41 170.153L503.373 178.274L449.118 227.73L516 258L449.118 288.27L503.373 337.726L430.41 345.847L466.726 409.649L394.825 394.825L409.649 466.726L345.847 430.41L337.726 503.373L288.27 449.118L258 516L227.73 449.118L178.274 503.373L170.153 430.41L106.351 466.726L121.175 394.825L49.2736 409.649L85.5902 345.847L12.6274 337.726L66.8823 288.27L0 258L66.8823 227.73L12.6274 178.274L85.5902 170.153L49.2736 106.351L121.175 121.175L106.351 49.2736L170.153 85.5902L178.274 12.6274L227.73 66.8823L258 0Z" fill="#F5FFA6"/>
</svg>
